<svg width="375" height="367" viewBox="0 0 375 367" fill="none" xmlns="http://www.w3.org/2000/svg">
<g clip-path="url(#clip0_803_2024)">
<mask id="mask0_803_2024" style="mask-type:luminance" maskUnits="userSpaceOnUse" x="-61" y="0" width="498" height="367">
<path d="M437 0H-61V367H437V0Z" fill="white"/>
</mask>
<g mask="url(#mask0_803_2024)">
<path d="M334.08 126.783C352.783 126.783 367.944 111.546 367.944 92.7516C367.944 73.9569 352.783 58.7207 334.08 58.7207C315.377 58.7207 300.216 73.9569 300.216 92.7516C300.216 111.546 315.377 126.783 334.08 126.783Z" fill="#083EB1"/>
<path d="M8.71996 350.986C25.9557 350.986 39.928 336.945 39.928 319.625C39.928 302.304 25.9557 288.263 8.71996 288.263C-8.51574 288.263 -22.488 302.304 -22.488 319.625C-22.488 336.945 -8.51574 350.986 8.71996 350.986Z" stroke="#083EB1" stroke-width="2"/>
<path d="M-45.728 233.546C-16.7574 233.546 6.72798 209.646 6.72798 180.164C6.72798 150.682 -16.7574 126.782 -45.728 126.782C-74.6987 126.782 -98.184 150.682 -98.184 180.164C-98.184 209.646 -74.6987 233.546 -45.728 233.546Z" fill="#031947"/>
<path d="M33.288 114.772C64.0922 114.772 89.064 89.6769 89.064 58.7208C89.064 27.7648 64.0922 2.66992 33.288 2.66992C2.48373 2.66992 -22.488 27.7648 -22.488 58.7208C-22.488 89.6769 2.48373 114.772 33.288 114.772Z" stroke="#02DE82" stroke-width="2"/>
<path d="M437 350.987C478.072 350.987 511.368 317.527 511.368 276.252C511.368 234.977 478.072 201.518 437 201.518C395.928 201.518 362.632 234.977 362.632 276.252C362.632 317.527 395.928 350.987 437 350.987Z" stroke="#031947" stroke-width="2"/>
<path d="M183.761 353.521C253.695 353.521 310.388 296.548 310.388 226.269C310.388 155.99 253.695 99.0176 183.761 99.0176C113.827 99.0176 57.1335 155.99 57.1335 226.269C57.1335 296.548 113.827 353.521 183.761 353.521Z" fill="#02DE82"/>
<path d="M198.175 237.356L205.312 255.506C205.725 256.585 206.379 257.555 207.223 258.341C208.067 259.128 209.078 259.71 210.18 260.043C212.756 260.875 215.527 260.863 218.095 260.009C223.524 257.458 230.983 248.642 231.314 237.867C231.588 229.033 230.973 224.282 229.735 224.061C228.044 223.896 226.455 223.17 225.22 221.998L206.777 201.808C205.755 200.685 204.395 199.931 202.906 199.659C201.416 199.388 199.879 199.615 198.531 200.306C197.182 200.997 196.096 202.113 195.439 203.483C194.783 204.854 194.591 206.403 194.895 207.893L196.844 233.466C196.893 234.3 197.091 235.117 197.429 235.88C197.508 236.048 197.592 236.212 197.682 236.373C197.868 236.689 198.033 237.018 198.175 237.356Z" fill="#FAAC84"/>
<path d="M189.178 161.757L194.02 162.656C197.824 163.365 201.292 165.306 203.892 168.184C206.493 171.062 208.083 174.718 208.419 178.591L209.929 196.055C209.929 196.055 188.511 188.66 189.178 187.319C189.845 185.978 189.178 161.757 189.178 161.757Z" fill="#FFFFF7"/>
<path d="M208.253 192.721L201.897 185.301L202.383 170.687C202.437 169.084 201.967 167.508 201.047 166.199C200.126 164.89 198.804 163.919 197.284 163.435L192.94 161.78C189.089 175.873 181.057 186.697 165.082 184.627C145.17 182.045 137.897 168.003 135.715 154.093L120.835 156.704C118.696 156.977 116.745 158.072 115.393 159.759C114.041 161.446 113.393 163.595 113.584 165.753L115.549 187.99L119.568 215.567C121.484 221.95 124.349 231.707 121.574 237.766L115.459 254.84C134.719 262.945 155.686 266.095 176.462 264.003C181.198 263.542 185.352 263.233 189.005 263.042L187.168 247.188C186.402 242.17 188.88 238.659 190.848 233.984L198.543 224.993L204.051 221.455C206.361 219.973 208.327 218.009 209.816 215.697C211.304 213.384 212.281 210.777 212.68 208.052C213.078 205.327 212.889 202.548 212.125 199.903C211.362 197.258 210.041 194.809 208.253 192.721Z" fill="#FFFFF7"/>
<path d="M165.084 184.63C181.061 186.7 189.098 175.88 192.94 161.783L161.065 149.65L135.713 154.096C137.899 168.006 145.172 182.048 165.084 184.63Z" fill="#FFFFF7"/>
<path d="M204.883 203.855C204.822 203.855 204.762 203.84 204.709 203.811C204.656 203.781 204.611 203.739 204.579 203.687C200.862 197.907 198.197 191.511 196.706 184.795C196.685 184.701 196.702 184.602 196.753 184.521C196.804 184.439 196.886 184.382 196.979 184.36C197.073 184.339 197.171 184.356 197.252 184.408C197.333 184.459 197.39 184.541 197.412 184.635C198.884 191.267 201.516 197.584 205.186 203.292C205.212 203.332 205.229 203.377 205.238 203.424C205.246 203.471 205.246 203.52 205.235 203.566C205.225 203.613 205.206 203.658 205.178 203.697C205.151 203.736 205.116 203.769 205.075 203.795C205.019 203.834 204.952 203.855 204.883 203.855Z" fill="#E9E9E1"/>
<path d="M202.862 238.834L184.376 238.048C183.81 238.073 183.248 237.951 182.743 237.694C182.237 237.437 181.807 237.054 181.491 236.581C181.176 236.109 180.988 235.563 180.943 234.995C180.899 234.428 181.001 233.859 181.239 233.343L195.98 191.897C196.49 190.626 197.367 189.537 198.497 188.77C199.626 188.002 200.959 187.59 202.322 187.588L220.813 188.378C221.379 188.353 221.942 188.475 222.447 188.731C222.953 188.988 223.384 189.372 223.699 189.844C224.014 190.317 224.203 190.863 224.247 191.431C224.291 191.998 224.19 192.567 223.952 193.084L209.211 234.529C208.698 235.8 207.82 236.888 206.689 237.654C205.558 238.421 204.226 238.832 202.862 238.834Z" fill="#083EB1"/>
<path d="M206.366 243.975C206.308 243.975 206.25 243.961 206.198 243.934C206.147 243.906 206.103 243.866 206.07 243.818C206.043 243.778 206.023 243.734 206.013 243.687C206.003 243.64 206.002 243.592 206.011 243.545C206.019 243.498 206.037 243.453 206.063 243.413C206.089 243.372 206.122 243.338 206.162 243.311L211.29 239.719C211.37 239.664 211.468 239.643 211.563 239.66C211.658 239.678 211.742 239.732 211.797 239.812C211.852 239.892 211.873 239.99 211.856 240.086C211.839 240.181 211.784 240.266 211.705 240.321L206.575 243.91C206.513 243.951 206.441 243.974 206.366 243.975Z" fill="#D4916F"/>
<path d="M127.369 275.313C149.534 285.18 168.919 283.141 190.515 272.075L189.001 263.043C185.348 263.234 181.193 263.542 176.458 264.004C155.682 266.096 134.714 262.947 115.454 254.841L109.52 271.4L127.369 275.313Z" fill="#031947"/>
<path d="M112.199 264.003L103.551 279.952C100.618 286.135 99.3233 292.974 99.7906 299.807C100.258 306.64 102.472 313.237 106.219 318.958C109.966 324.68 115.118 329.333 121.179 332.468C127.239 335.602 134.001 337.112 140.812 336.852L189.852 331.273C205.952 330.659 202.16 316.587 197.069 301.227L190.518 272.078L112.199 264.003Z" fill="#031947"/>
<path d="M206.491 121.035C205.214 122.92 203.758 124.676 202.143 126.277C196.467 131.905 183.7 130.072 176.778 128.337C168.249 126.201 160.346 122.107 152.586 117.95C150.265 116.931 148.223 115.364 146.633 113.382C144.601 110.371 144.855 106.419 145.193 102.787C145.815 96.05 146.57 88.9369 150.541 83.4786C154.155 78.5274 159.922 75.6435 165.68 73.5576C170.514 71.6611 175.628 70.5894 180.813 70.3867C187.305 70.43 193.635 72.4329 198.98 76.1358C204.326 79.8386 208.441 85.0703 210.791 91.1522C212.392 95.6212 212.951 100.399 212.426 105.12C211.972 110.395 210.169 115.463 207.194 119.833C204.306 123.703 203.445 128.241 202.239 132.957C199.374 144.182 200.607 155.32 200.645 166.861C188.91 164.691 174.704 160.714 164.524 154.45C165.134 148.97 165.866 143.449 166.477 137.971C167.319 130.429 168.238 122.65 171.998 116.07C175.757 109.489 183.153 104.387 190.59 105.736C194.35 106.553 197.75 108.56 200.292 111.463C202.772 114.363 204.857 117.582 206.491 121.035Z" fill="#031947"/>
<path d="M158.367 134.796L154.736 149.396C154.17 151.696 154.122 154.094 154.595 156.416C156.132 164.037 163.037 169.18 170.121 167.991C171.425 167.757 172.642 167.17 173.638 166.292C174.635 165.415 175.375 164.281 175.778 163.012L183.526 139.993L158.367 134.796Z" fill="#FAAC84"/>
<path d="M230.649 229.035L229.063 211.873L218.837 205.59L205.065 203.855C204.879 203.832 204.69 203.857 204.517 203.928C204.343 204 204.191 204.114 204.075 204.262C203.958 204.409 203.881 204.584 203.851 204.77C203.821 204.956 203.84 205.146 203.904 205.323C204.211 206.158 204.743 206.89 205.442 207.436C206.14 207.982 206.977 208.322 207.858 208.415L214.099 209.07L220.655 211.969L210.354 212.236L203.524 215.515C202.778 215.874 202.196 216.504 201.893 217.278C201.591 218.052 201.591 218.912 201.893 219.685L203.119 222.823L203.158 227.627L205.237 230.487C205.78 231.234 206.498 231.835 207.328 232.236C208.157 232.637 209.072 232.826 209.992 232.787L211.699 232.715L214.807 238.511C217.065 240.615 221.762 244.317 224.79 243.765C225.819 243.576 226.801 243.185 227.68 242.613C228.558 242.042 229.316 241.302 229.909 240.436C230.503 239.57 230.92 238.594 231.137 237.566C231.354 236.537 231.367 235.475 231.175 234.441L230.649 229.035Z" fill="#FAAC84"/>
<path d="M150.137 227.731L159.411 218.187L167.207 212.861C167.769 212.476 168.381 212.171 169.025 211.954L177.883 208.948V209.104C177.861 210.592 177.437 212.046 176.658 213.311C175.878 214.576 174.771 215.605 173.456 216.288L167.686 219.422L180.454 218.385L190.57 214.621C191.369 214.237 192.263 214.098 193.14 214.222C194.017 214.345 194.839 214.725 195.502 215.315C196.176 215.967 196.688 216.769 196.996 217.657C197.304 218.545 197.398 219.494 197.272 220.425L196.775 224.464C196.579 225.86 196.097 227.2 195.359 228.4C194.621 229.6 193.644 230.633 192.489 231.434L182.396 238.625C181.27 239.427 179.997 239.996 178.651 240.298L152.375 245.068C151.294 245.264 150.179 245.121 149.181 244.659C148.183 244.196 147.351 243.437 146.797 242.483C145.741 240.665 145.262 238.567 145.424 236.468C145.586 234.37 146.382 232.371 147.704 230.739L150.137 227.731Z" fill="#FAAC84"/>
<path d="M172.287 225.027C172.199 225.027 172.113 224.995 172.046 224.937C171.979 224.879 171.936 224.798 171.923 224.71C171.917 224.663 171.921 224.614 171.934 224.568C171.947 224.521 171.968 224.478 171.998 224.44C172.028 224.402 172.064 224.371 172.106 224.347C172.148 224.324 172.194 224.309 172.242 224.303L179.796 223.324C181.442 223.119 183.044 222.646 184.539 221.924L194.898 216.239C194.982 216.193 195.081 216.183 195.174 216.21C195.266 216.237 195.343 216.3 195.39 216.384C195.436 216.469 195.446 216.569 195.419 216.661C195.392 216.754 195.329 216.832 195.246 216.879L184.873 222.572C183.303 223.332 181.62 223.829 179.891 224.043L172.332 225.024C172.317 225.027 172.302 225.028 172.287 225.027Z" fill="#FAAC84"/>
<path d="M173.472 231.101C173.381 231.101 173.294 231.066 173.228 231.005C173.161 230.943 173.12 230.859 173.112 230.769C173.105 230.678 173.131 230.588 173.186 230.516C173.241 230.444 173.321 230.396 173.411 230.38L180.015 229.226C181.41 228.973 182.763 228.526 184.035 227.898L195.455 221.233C195.539 221.187 195.637 221.176 195.728 221.202C195.82 221.228 195.898 221.289 195.945 221.372C195.992 221.455 196.006 221.553 195.982 221.646C195.958 221.738 195.899 221.818 195.818 221.867L184.376 228.546C183.038 229.208 181.615 229.68 180.147 229.946L173.535 231.105C173.514 231.1 173.493 231.098 173.472 231.101Z" fill="#FAAC84"/>
<path d="M174.379 236.65C174.29 236.649 174.205 236.616 174.139 236.557C174.073 236.497 174.031 236.416 174.021 236.327C174.012 236.239 174.034 236.15 174.086 236.077C174.137 236.004 174.213 235.953 174.299 235.933L180.586 234.492C182.328 234.075 183.984 233.352 185.477 232.357L195.69 225.55C195.77 225.497 195.868 225.478 195.962 225.498C196.056 225.517 196.138 225.573 196.191 225.653C196.244 225.734 196.263 225.832 196.244 225.926C196.224 226.02 196.169 226.103 196.089 226.156L185.875 232.96C184.311 234.003 182.575 234.76 180.749 235.196L174.462 236.638C174.435 236.646 174.407 236.65 174.379 236.65Z" fill="#FAAC84"/>
<path d="M171.399 148.577C165.306 144.207 160.623 137.356 159.941 130.881C159.922 130.694 159.902 130.507 159.888 130.32C159.817 129.269 159.677 128.225 159.467 127.193C159.532 126.659 159.599 126.126 159.664 125.584C158.027 120.064 157.007 114.377 156.625 108.63C156.241 102.778 157.304 96.9209 159.72 91.5822C162.183 86.2207 166.594 82.0093 172.048 79.8115C176.135 78.4707 180.464 78.0413 184.733 78.5531C189.71 78.9654 194.781 80.0437 198.896 82.8877C202.708 85.6282 205.541 89.5294 206.974 94.0138C208.455 98.2187 208.829 102.737 208.059 107.13C206.227 118.309 204.314 129.583 200.034 140.065C198.516 143.779 196.608 147.504 193.455 149.967C186.742 155.231 178.194 153.445 171.399 148.577Z" fill="#FAAC84"/>
<path d="M186.602 111.597C186.509 111.597 186.419 111.565 186.348 111.505C184.581 110.056 182.474 109.086 180.227 108.69C177.98 108.294 175.67 108.485 173.518 109.245C173.419 109.28 173.31 109.274 173.215 109.229C173.12 109.184 173.047 109.104 173.011 109.004C172.993 108.955 172.985 108.902 172.987 108.849C172.989 108.796 173.002 108.744 173.025 108.696C173.047 108.648 173.079 108.605 173.118 108.57C173.157 108.534 173.203 108.507 173.253 108.489C175.536 107.685 177.986 107.483 180.369 107.903C182.752 108.324 184.987 109.353 186.861 110.891C186.901 110.925 186.934 110.967 186.958 111.013C186.982 111.06 186.997 111.111 187.002 111.163C187.006 111.216 187 111.269 186.985 111.319C186.969 111.369 186.943 111.416 186.91 111.456C186.872 111.501 186.825 111.537 186.771 111.561C186.718 111.586 186.66 111.598 186.602 111.597Z" fill="black"/>
<path d="M189.574 130.351C189.449 130.351 189.327 130.351 189.202 130.339C189.149 130.336 189.098 130.323 189.051 130.3C189.004 130.277 188.961 130.245 188.926 130.206C188.892 130.167 188.865 130.121 188.847 130.071C188.83 130.021 188.823 129.969 188.826 129.916C188.835 129.811 188.884 129.714 188.963 129.645C189.042 129.575 189.144 129.538 189.248 129.542C190.713 129.593 192.152 129.147 193.334 128.276C193.547 128.127 193.729 127.938 193.869 127.719C194.009 127.5 194.104 127.255 194.15 126.999C194.196 126.753 194.192 126.5 194.138 126.256C194.085 126.011 193.983 125.78 193.839 125.576C192.71 124.169 191.869 122.552 191.363 120.817C190.857 119.083 190.696 117.265 190.891 115.468L190.906 115.347L190.985 115.252C191.836 114.269 192.883 113.476 194.058 112.926C195.234 112.376 196.511 112.081 197.807 112.06C199.104 112.053 200.387 112.321 201.573 112.847C202.759 113.372 203.821 114.144 204.69 115.11C204.729 115.149 204.759 115.195 204.779 115.245C204.799 115.296 204.808 115.35 204.807 115.404C204.805 115.459 204.793 115.512 204.77 115.562C204.748 115.611 204.715 115.655 204.675 115.692C204.634 115.728 204.587 115.756 204.536 115.773C204.484 115.791 204.43 115.797 204.376 115.793C204.322 115.788 204.27 115.773 204.222 115.747C204.174 115.722 204.132 115.687 204.098 115.644C203.312 114.774 202.355 114.077 201.287 113.597C200.22 113.118 199.064 112.867 197.895 112.86H197.815C196.653 112.88 195.507 113.14 194.45 113.624C193.392 114.108 192.445 114.807 191.668 115.675C191.498 117.356 191.66 119.054 192.144 120.672C192.628 122.29 193.424 123.796 194.487 125.105C194.692 125.396 194.837 125.724 194.914 126.072C194.991 126.419 194.998 126.779 194.935 127.129C194.87 127.49 194.735 127.835 194.538 128.143C194.341 128.451 194.085 128.717 193.785 128.926C192.559 129.823 191.089 130.32 189.574 130.351Z" fill="black"/>
<path d="M164.529 163.416C160.024 160.771 155.667 157.88 151.477 154.757C147.418 151.94 144.572 149.895 142.937 145.22C141.783 141.933 142.69 136.035 142.902 132.554C143.534 122.126 145.128 111.591 146.619 99.5523C146.965 96.7497 148.581 96.0064 150.585 94.0313C152.589 92.0561 155.927 91.1807 158.253 92.7594C160.51 94.2888 161.007 97.361 161.307 100.083C161.93 105.799 162.609 111.511 163.174 117.23C163.638 121.901 162.571 126.693 162.351 131.383C162.1 136.741 162.157 142.11 162.521 147.462C162.707 150.221 162.976 152.975 163.33 155.725C163.583 157.745 163.454 161.689 164.529 163.416Z" fill="#031947"/>
<path d="M178.445 116.76C178.198 118.17 178.661 119.429 179.477 119.577C180.292 119.725 181.167 118.698 181.408 117.291C181.648 115.884 181.191 114.622 180.371 114.472C179.55 114.323 178.695 115.349 178.445 116.76Z" fill="black"/>
<path d="M196.32 120.738C196.073 122.149 196.536 123.407 197.352 123.555C198.167 123.704 199.042 122.675 199.283 121.268C199.523 119.861 199.066 118.599 198.245 118.451C197.425 118.303 196.57 119.328 196.32 120.738Z" fill="black"/>
<path d="M210.699 111.512C198.644 107.617 187.787 100.673 179.17 91.3482C176.499 96.9613 173.805 102.699 169.116 106.76C165.75 109.663 161.611 111.509 157.21 112.071C155.411 112.377 153.564 112.215 151.845 111.599C150.991 111.281 150.234 110.746 149.648 110.047C149.061 109.347 148.665 108.506 148.499 107.607C148.441 106.229 148.727 104.858 149.33 103.619C150.673 99.8877 152.32 96.2743 154.257 92.8162C156.204 89.3474 158.954 86.4009 162.274 84.2258C167.073 81.4867 172.685 80.5502 178.108 81.5834C183.486 82.6345 188.628 84.6604 193.284 87.5621C197.861 90.0684 201.965 93.3617 205.41 97.2923C208.864 101.262 210.856 106.303 211.051 111.572C210.556 111.633 210.54 111.987 210.699 111.512Z" fill="#031947"/>
<path d="M157.413 106.813C156.437 107.277 155.585 107.97 154.929 108.833C154.273 109.696 153.832 110.704 153.643 111.773C152.973 114.65 153.423 117.676 154.9 120.23C156.399 122.771 158.808 124.639 161.634 125.454C162.196 125.665 162.796 125.756 163.395 125.72C163.994 125.685 164.58 125.524 165.113 125.248C166.04 124.495 166.657 123.426 166.848 122.244C167.709 119 168.662 115.027 166.582 112.102C164.502 109.176 161.561 105.231 157.413 106.813Z" fill="#FAAC84"/>
<path d="M158.674 117.182C158.656 117.184 158.638 117.184 158.621 117.182C158.568 117.175 158.517 117.158 158.472 117.132C158.426 117.105 158.385 117.07 158.353 117.027C158.321 116.985 158.298 116.937 158.284 116.886C158.271 116.834 158.268 116.781 158.275 116.728C158.444 115.59 158.923 114.521 159.659 113.64C160.395 112.759 161.359 112.1 162.445 111.737C162.496 111.718 162.549 111.711 162.603 111.714C162.656 111.716 162.708 111.73 162.756 111.754C162.804 111.778 162.847 111.811 162.882 111.852C162.917 111.892 162.944 111.94 162.96 111.991C162.976 112.042 162.982 112.096 162.977 112.15C162.972 112.203 162.957 112.255 162.931 112.303C162.906 112.35 162.871 112.392 162.83 112.426C162.788 112.459 162.74 112.484 162.688 112.499C161.746 112.816 160.91 113.389 160.272 114.155C159.634 114.92 159.219 115.847 159.072 116.835C159.059 116.931 159.012 117.02 158.938 117.084C158.865 117.148 158.771 117.182 158.674 117.182Z" fill="black"/>
<path d="M201.487 81.179C206.561 85.7096 209.923 91.8621 211.004 98.5962C211.379 100.99 211.208 103.934 209.13 105.154C206.858 106.489 204.034 104.834 202.03 103.118C196.506 98.3746 191.645 92.5373 184.979 89.6387C179.894 87.434 174.162 87.1231 169.004 85.0879C166.755 84.1991 164.292 82.296 164.801 79.9245C165.188 78.1176 167.124 77.1487 168.865 76.5655C175.077 74.5745 181.696 74.235 188.078 75.5801C194.459 76.9251 200.385 79.9089 205.277 84.2405" fill="#031947"/>
<path d="M161.148 226.813L109.024 232.402L125.365 200.774L98.8128 197.411L79.3603 243.536C78.8956 246.363 79.1657 249.262 80.1442 251.954C81.1228 254.645 82.7767 257.037 84.9455 258.897C87.1144 260.757 89.7246 262.022 92.5232 262.57C95.3218 263.118 98.2139 262.93 100.919 262.024L163.158 242.285L161.148 226.813Z" fill="#FAAC84"/>
<path d="M122.909 156.377C118.141 156.776 113.594 158.572 109.832 161.544C106.07 164.515 103.259 168.53 101.746 173.092L82.4678 214.901L90.3747 218.988C101.487 224.727 110.279 224.327 122.417 221.337C123.445 221.206 124.432 220.845 125.304 220.282C125.972 218.935 131.604 166.466 131.604 166.466L122.909 156.377Z" fill="#FFFFF7"/>
<path d="M175.991 152.266C175.942 152.267 175.894 152.256 175.85 152.235C172.602 150.819 169.738 148.641 167.5 145.884C165.262 143.127 163.713 139.871 162.984 136.389C162.974 136.342 162.974 136.294 162.983 136.247C162.992 136.2 163.01 136.155 163.037 136.115C163.063 136.075 163.097 136.041 163.137 136.015C163.177 135.989 163.221 135.971 163.268 135.962C163.315 135.952 163.363 135.952 163.41 135.961C163.457 135.97 163.501 135.988 163.541 136.015C163.58 136.041 163.614 136.076 163.64 136.116C163.667 136.156 163.685 136.2 163.693 136.247C164.397 139.614 165.893 142.763 168.057 145.428C170.222 148.094 172.99 150.2 176.131 151.568C176.175 151.586 176.215 151.614 176.248 151.648C176.282 151.682 176.308 151.722 176.325 151.766C176.343 151.811 176.352 151.858 176.351 151.906C176.35 151.954 176.34 152.001 176.321 152.044C176.293 152.109 176.247 152.165 176.188 152.204C176.13 152.243 176.061 152.265 175.991 152.266Z" fill="#1A1A1A"/>
<path d="M222.128 241.828C222.108 241.83 222.087 241.83 222.067 241.828C220.113 241.493 218.249 240.754 216.593 239.658C214.937 238.562 213.526 237.132 212.448 235.46C212.397 235.378 212.38 235.28 212.401 235.185C212.422 235.091 212.478 235.009 212.559 234.956C212.64 234.906 212.737 234.889 212.83 234.91C212.923 234.931 213.004 234.987 213.057 235.067C214.079 236.654 215.418 238.01 216.989 239.049C218.561 240.088 220.33 240.787 222.184 241.103C222.275 241.117 222.357 241.165 222.414 241.237C222.471 241.309 222.499 241.401 222.492 241.493C222.485 241.585 222.443 241.67 222.375 241.733C222.307 241.795 222.22 241.829 222.128 241.828Z" fill="#D4916F"/>
<path d="M221.27 233.484C221.219 233.484 221.169 233.472 221.123 233.45C221.08 233.43 221.041 233.402 221.009 233.367C220.976 233.332 220.951 233.291 220.935 233.247C220.918 233.202 220.91 233.154 220.912 233.107C220.914 233.059 220.925 233.012 220.945 232.969C223.295 227.76 225.139 222.335 226.452 216.769C226.458 216.718 226.474 216.668 226.501 216.624C226.527 216.58 226.562 216.541 226.604 216.512C226.646 216.482 226.694 216.461 226.744 216.452C226.795 216.442 226.847 216.443 226.897 216.455C226.947 216.467 226.994 216.49 227.034 216.521C227.075 216.553 227.108 216.593 227.133 216.638C227.157 216.684 227.171 216.734 227.174 216.786C227.178 216.837 227.17 216.889 227.152 216.937C225.828 222.548 223.97 228.018 221.604 233.271C221.573 233.334 221.526 233.388 221.467 233.425C221.408 233.463 221.34 233.484 221.27 233.484Z" fill="#D4916F"/>
<path d="M95.0147 235.307C94.9229 235.308 94.8342 235.274 94.7664 235.211C94.6987 235.149 94.6569 235.063 94.6497 234.971C94.6424 234.879 94.6702 234.788 94.7274 234.716C94.7845 234.644 94.8668 234.596 94.9576 234.582L108.552 232.435C108.646 232.422 108.74 232.447 108.816 232.503C108.892 232.56 108.943 232.644 108.958 232.737C108.972 232.831 108.95 232.927 108.896 233.004C108.842 233.081 108.759 233.134 108.667 233.152L95.0718 235.299C95.0531 235.303 95.034 235.306 95.0147 235.307Z" fill="#D4916F"/>
<path d="M121.146 221.454C121.123 221.454 121.1 221.451 121.078 221.446C121.03 221.438 120.985 221.421 120.944 221.395C120.903 221.369 120.868 221.335 120.841 221.295C120.813 221.256 120.794 221.211 120.784 221.163C120.774 221.116 120.773 221.067 120.782 221.019C121.746 216.421 122.951 211.877 124.394 207.407C125.83 202.961 127.032 198.441 127.994 193.868C128.012 193.773 128.066 193.689 128.146 193.634C128.225 193.58 128.323 193.559 128.417 193.576C128.512 193.594 128.596 193.649 128.65 193.729C128.704 193.808 128.725 193.906 128.707 194.002C127.743 198.6 126.537 203.144 125.095 207.614C123.662 212.062 122.462 216.582 121.502 221.157C121.486 221.24 121.442 221.315 121.377 221.37C121.312 221.424 121.23 221.454 121.146 221.454Z" fill="#E9E9E1"/>
<path d="M162.965 269.554C147.571 269.601 132.291 266.906 117.834 261.593C117.749 261.558 117.682 261.491 117.647 261.407C117.611 261.322 117.611 261.226 117.646 261.142C117.681 261.057 117.747 260.989 117.832 260.954C117.916 260.918 118.011 260.918 118.095 260.953C118.418 261.086 150.556 274.271 187.506 266.314C187.59 266.303 187.675 266.325 187.745 266.374C187.814 266.424 187.862 266.498 187.881 266.581C187.899 266.664 187.885 266.752 187.843 266.826C187.8 266.9 187.732 266.955 187.651 266.981C179.535 268.712 171.261 269.574 162.965 269.554Z" fill="#32406C"/>
<path d="M113.744 288.193C113.667 288.193 113.593 288.169 113.531 288.124C113.469 288.08 113.423 288.017 113.398 287.945C113.367 287.853 113.374 287.753 113.417 287.667C113.459 287.58 113.534 287.514 113.625 287.483C120.789 285.014 126.69 279.797 130.039 272.971C130.059 272.926 130.087 272.885 130.122 272.851C130.157 272.817 130.199 272.791 130.245 272.774C130.291 272.757 130.34 272.749 130.388 272.751C130.437 272.754 130.485 272.766 130.529 272.787C130.573 272.809 130.612 272.839 130.644 272.876C130.676 272.913 130.7 272.956 130.715 273.003C130.73 273.05 130.736 273.099 130.731 273.148C130.727 273.197 130.712 273.244 130.689 273.287C129.005 276.767 126.65 279.875 123.759 282.43C120.869 284.986 117.501 286.938 113.852 288.173C113.818 288.187 113.781 288.194 113.744 288.193Z" fill="white"/>
<path d="M270.023 331.461L236.44 329.927C234.787 329.852 233.136 330.121 231.592 330.716L229.118 331.673C226.573 332.655 224.438 334.479 223.063 336.844C221.689 339.208 221.156 341.973 221.554 344.683C221.952 347.392 223.257 349.884 225.253 351.749C227.249 353.614 229.818 354.739 232.536 354.941C245.691 355.911 258.887 356.191 272.072 355.78L270.429 331.049" fill="#02B268"/>
<path d="M233.318 329.397L253.416 331.872H270.641L279.255 341.347L273.924 349.178C273.924 349.178 265.331 354.596 246.857 353.716C242.184 353.538 237.559 352.695 233.121 351.211C229.771 350.054 226.885 347.834 224.9 344.885L218.763 335.785L233.318 329.397Z" fill="white"/>
<path d="M132.646 348.911C132.646 348.911 103.246 336.534 92.3255 316.949C81.4054 297.363 81.1863 284.123 84.6603 274.736C88.1344 265.348 106.505 263.334 106.505 263.334C106.505 263.334 115.47 262.088 135.045 271.442C154.619 280.796 210.422 315.415 210.422 315.415L220.18 321.745C220.18 321.745 222.877 328.418 215.646 337.729C208.415 347.04 200.439 345.95 200.439 345.95L158.837 331.921L149.815 336.477L143.961 347.71L132.646 348.911Z" fill="#031947"/>
<path d="M118.524 333.107L152.107 331.574C153.76 331.498 155.41 331.767 156.955 332.363L159.429 333.32C161.973 334.302 164.107 336.126 165.481 338.49C166.856 340.855 167.388 343.619 166.99 346.328C166.592 349.037 165.287 351.529 163.292 353.393C161.296 355.258 158.728 356.384 156.011 356.586C142.856 357.556 129.659 357.836 116.475 357.425L118.114 332.695" fill="#02B268"/>
<path d="M140.545 279.105L196.915 283.013C196.915 283.013 236.739 266.279 249.95 264.166C263.161 262.054 271.607 263.16 277.548 272.254C283.49 281.347 280.838 297.369 269.838 307.085C258.838 316.802 233.218 328.605 233.218 328.605C233.218 328.605 193.899 343.46 179.738 346.022C165.578 348.584 163.7 348.558 163.7 348.558C163.7 348.558 158.962 350.358 157.508 327.644C156.054 304.93 148.388 312.342 148.388 312.342C148.388 312.342 140.572 277.688 140.545 279.105Z" fill="#031947"/>
<path d="M156.83 331.872L135.136 333.519H117.911L109.297 342.998L114.628 350.829C114.628 350.829 123.221 356.248 141.695 355.367C146.369 355.189 150.993 354.346 155.431 352.862C158.781 351.705 161.667 349.485 163.652 346.536L159.699 339.703L156.83 331.872Z" fill="white"/>
<path d="M135.339 329.397L136.547 332.699C138.725 338.67 139.608 345.041 139.135 351.383L138.622 358.246H113.596C111.081 358.246 108.615 357.554 106.464 356.244C104.313 354.935 102.559 353.059 101.394 350.82C100.229 348.58 99.6956 346.063 99.8528 343.541C100.01 341.019 100.851 338.588 102.286 336.512L102.665 335.963C103.896 334.184 105.525 332.719 107.421 331.687C109.318 330.655 111.429 330.086 113.584 330.023L135.339 329.397Z" fill="#02B268"/>
<path d="M137.799 360.93C137.413 360.931 137.03 360.857 136.671 360.712C136.296 360.563 135.953 360.341 135.663 360.058C135.373 359.776 135.141 359.439 134.981 359.066C134.821 358.693 134.735 358.293 134.729 357.887C134.723 357.481 134.796 357.078 134.945 356.701L135.405 355.53C136.934 351.604 137.431 347.348 136.849 343.172C136.267 338.997 134.625 335.042 132.082 331.689C131.832 331.367 131.649 330.998 131.541 330.605C131.434 330.211 131.406 329.8 131.457 329.396C131.509 328.991 131.64 328.6 131.842 328.247C132.044 327.893 132.315 327.583 132.637 327.335C132.959 327.086 133.327 326.905 133.719 326.8C134.112 326.695 134.521 326.67 134.923 326.724C135.325 326.779 135.713 326.914 136.063 327.12C136.414 327.326 136.72 327.6 136.965 327.925C140.151 332.126 142.208 337.081 142.937 342.313C143.666 347.544 143.043 352.876 141.127 357.795L140.667 358.965C140.44 359.544 140.045 360.041 139.534 360.391C139.022 360.741 138.418 360.929 137.799 360.93Z" fill="#02DE82"/>
<path d="M158.853 330.977L148.615 333.303C148.615 333.303 146.464 339.251 149.666 344.036C151.174 346.401 152.861 348.646 154.712 350.751L168.881 347.712C165.838 345.252 163.195 342.332 161.046 339.056C157.4 333.313 158.853 330.977 158.853 330.977Z" fill="#FAAC84"/>
<path d="M218.338 319.343L239.282 331.087C239.282 331.087 242.935 336.825 240.496 341.507C239.112 344.237 237.139 346.622 234.722 348.488L211.326 341.897C211.326 341.897 215.124 340.082 218.099 332.101C221.074 324.12 218.338 319.343 218.338 319.343Z" fill="#FAAC84"/>
<path d="M191.092 342.803C191.068 342.802 191.044 342.8 191.02 342.795C169.207 338.167 112.195 308.469 111.623 308.172C111.583 308.151 111.548 308.122 111.519 308.087C111.49 308.053 111.468 308.012 111.455 307.969C111.441 307.926 111.437 307.881 111.441 307.836C111.445 307.791 111.458 307.747 111.479 307.707C111.5 307.667 111.528 307.631 111.563 307.602C111.597 307.573 111.637 307.551 111.68 307.538C111.723 307.525 111.768 307.52 111.813 307.524C111.858 307.528 111.902 307.541 111.941 307.562C112.514 307.86 169.444 337.516 191.163 342.127C191.247 342.143 191.321 342.191 191.371 342.26C191.422 342.329 191.445 342.414 191.436 342.499C191.427 342.584 191.387 342.663 191.323 342.72C191.259 342.776 191.177 342.807 191.092 342.806V342.803Z" fill="#32406C"/>
<path d="M216.013 318.226C215.953 318.226 215.894 318.21 215.841 318.18L153.027 282.014C152.807 281.881 131.946 268.837 119.441 266.133C116.422 265.475 114.207 264.987 112.848 264.674C110.906 264.227 110.906 264.227 110.981 263.862C111.057 263.496 111.149 263.507 112.738 263.804C112.793 263.815 112.844 263.839 112.887 263.873C112.931 263.908 112.966 263.952 112.989 264.003C114.146 264.27 116.153 264.716 119.583 265.451C132.207 268.186 153.169 281.287 153.378 281.42L216.192 317.587C216.258 317.624 216.309 317.683 216.338 317.753C216.367 317.823 216.372 317.901 216.352 317.974C216.332 318.048 216.288 318.112 216.228 318.158C216.167 318.204 216.094 318.228 216.018 318.227L216.013 318.226Z" fill="#32406C"/>
<path d="M197.447 305.109C197.382 305.109 197.318 305.09 197.263 305.054C197.208 305.018 197.164 304.967 197.137 304.908C197.118 304.866 197.108 304.822 197.106 304.777C197.105 304.732 197.112 304.687 197.128 304.645C197.144 304.603 197.168 304.564 197.199 304.531C197.23 304.498 197.267 304.472 197.308 304.454L236.208 286.758C236.249 286.739 236.293 286.728 236.338 286.727C236.383 286.725 236.427 286.733 236.469 286.749C236.511 286.765 236.55 286.789 236.582 286.82C236.615 286.851 236.641 286.889 236.659 286.93C236.678 286.971 236.688 287.015 236.69 287.06C236.691 287.105 236.684 287.15 236.668 287.193C236.652 287.235 236.628 287.273 236.597 287.306C236.566 287.339 236.529 287.365 236.488 287.384L197.587 305.08C197.543 305.1 197.495 305.11 197.447 305.109Z" fill="#32406C"/>
<path d="M182.657 291.124C182.578 291.122 182.501 291.092 182.441 291.039C182.381 290.987 182.341 290.915 182.328 290.836C182.315 290.757 182.329 290.676 182.37 290.607C182.41 290.537 182.472 290.484 182.547 290.456C188.191 288.346 193.717 285.931 199.102 283.223C199.183 283.183 199.277 283.176 199.363 283.205C199.449 283.233 199.52 283.295 199.562 283.375C199.602 283.457 199.609 283.551 199.58 283.638C199.552 283.724 199.491 283.796 199.41 283.837C193.996 286.556 188.44 288.982 182.768 291.104C182.732 291.116 182.695 291.123 182.657 291.124Z" fill="#32406C"/>
<path d="M253.21 327.751L252.003 331.053C249.824 337.024 248.942 343.394 249.415 349.736L249.927 356.6H274.951C277.466 356.599 279.932 355.907 282.083 354.598C284.234 353.289 285.987 351.413 287.153 349.173C288.318 346.934 288.851 344.417 288.694 341.894C288.537 339.372 287.696 336.941 286.261 334.865L285.882 334.317C284.651 332.537 283.022 331.072 281.125 330.04C279.229 329.008 277.117 328.438 274.961 328.377L253.21 327.751Z" fill="#02B268"/>
<path d="M250.748 359.28C250.131 359.279 249.528 359.092 249.018 358.743C248.508 358.395 248.114 357.9 247.887 357.323L247.428 356.153C245.512 351.234 244.889 345.902 245.618 340.67C246.347 335.439 248.404 330.484 251.591 326.283C252.088 325.632 252.821 325.206 253.631 325.099C254.031 325.046 254.438 325.072 254.829 325.177C255.219 325.282 255.585 325.464 255.906 325.711C256.227 325.958 256.496 326.266 256.698 326.618C256.9 326.969 257.031 327.357 257.084 327.76C257.137 328.163 257.111 328.572 257.006 328.964C256.902 329.356 256.722 329.724 256.476 330.047C253.932 333.4 252.29 337.355 251.709 341.53C251.127 345.706 251.626 349.962 253.156 353.888L253.615 355.059C253.914 355.822 253.899 356.673 253.574 357.425C253.249 358.177 252.64 358.769 251.881 359.07C251.519 359.208 251.135 359.279 250.748 359.28Z" fill="#02DE82"/>
<path d="M175.964 134.981C176.805 134.343 179.846 135.291 183.75 135.785C187.655 136.278 192.063 135.352 192.106 136.091C192.152 136.984 191.094 139.561 187.704 141.452C186.498 141.933 185.198 142.122 183.906 142.006C182.615 141.891 181.368 141.472 180.267 140.785C178.15 139.635 174.814 135.851 175.964 134.981Z" fill="white"/>
<path d="M245.279 152.057C245.707 151.357 243.734 147.611 243.342 146.831C239.45 139.094 232.393 138.188 227.879 140.786C212.186 149.813 232.403 179.075 244.518 177.415C250.549 176.589 266.988 164.257 266.687 152.685C266.37 140.708 253.728 138.197 245.279 152.057Z" fill="#FAF9E9"/>
</g>
</g>
<defs>
<clipPath id="clip0_803_2024">
<rect width="498" height="367" fill="white" transform="translate(-61)"/>
</clipPath>
</defs>
</svg>
